<?xml version="1.0" encoding="utf-8"?>
<!-- Generator: Adobe Illustrator 21.0.0, SVG Export Plug-In . SVG Version: 6.00 Build 0)  -->
<svg version="1.1" id="图层_1" xmlns="http://www.w3.org/2000/svg" xmlns:xlink="http://www.w3.org/1999/xlink" x="0px" y="0px"
	 viewBox="0 0 1024 1024" style="enable-background:new 0 0 1024 1024;" xml:space="preserve">
<style type="text/css">
	.st0{clip-path:url(#SVGID_1_);}
	.st1{fill:#FFFDF8;}
	.st2{fill:#D6E5FF;}
	.st3{fill:#FFE5D4;}
	.st4{fill:#5A7C88;}
	.st5{fill:#F3F7FF;}
	.st6{fill:#79C4FF;}
	.st7{fill:#E5EAF9;}
	.st8{fill:#558EBA;}
	.st9{fill:#879BA0;}
	.st10{fill:#F4C7A8;}
</style>
<g>
	<defs>
		<path id="SVGID_3_" d="M889.3,982H134.7c-12.5,0-22.7-10.2-22.7-22.7v-888c0-12.5,10.2-22.7,22.7-22.7h754.6
			c12.5,0,22.7,10.2,22.7,22.7v888C912,971.8,901.8,982,889.3,982z"/>
	</defs>
	<clipPath id="SVGID_1_">
		<use xlink:href="#SVGID_3_"  style="overflow:visible;"/>
	</clipPath>
	<g class="st0">
		<path class="st1" d="M802.1,878.7 M181.7,1025.7c0-184.1,149.2-333.3,333.3-333.3s333.3,149.2,333.3,333.3S699.2,1359,515.1,1359
			S181.7,1209.8,181.7,1025.7z"/>
		<rect x="438.2" y="555.2" class="st2" width="139.9" height="194.5"/>
		<path class="st3" d="M505.4,533.5c30.6,16.8,77.4-110.1-2.8-102.9C422.4,437.7,505.4,533.5,505.4,533.5L505.4,533.5z M505.4,533.5
			"/>
		<path class="st4" d="M484.1,821.6c0,8.8,4.7,16.9,12.3,21.3c7.6,4.4,17,4.4,24.6,0c7.6-4.4,12.3-12.5,12.3-21.3
			c0-13.6-11-24.6-24.6-24.6C495.1,797,484.1,808,484.1,821.6L484.1,821.6z M484.1,821.6"/>
		<path class="st5" d="M329.1,533.4c-30.1,17.6-80.4-108,0-103C409.5,435.5,329.1,533.4,329.1,533.4L329.1,533.4z M680.9,533.4
			c30.1,17.6,80.4-108,0-103C600.6,435.5,680.9,533.4,680.9,533.4L680.9,533.4z M680.9,533.4"/>
		<path class="st5" d="M699.3,467.9c0,105.9-85.8,220.5-191.7,220.5c-105.9,0-191.7-114.6-191.7-220.5
			c0-105.9,85.8-191.7,191.7-191.7C613.5,276.2,699.3,362.1,699.3,467.9L699.3,467.9z M683.8,810.4"/>
		<path class="st6" d="M618.6,748.3l-0.3,0.8c0,0,0,0,0,0l-10.6,39.5l-3.6,13.4l-0.8,3.2l-1.3,5v0.1l-8.4,31.3l-0.1,0.1l-12.1,45.3
			L560,1004.5c-15.8,1.6-31.6,2.5-47.5,2.6c-0.7,0-1.4,0-2.1,0h-3.1c-0.6,0-1.3,0-2,0c-15.7-0.1-31.4-0.9-47-2.5
			c-6.2-25.1-14.6-88.3-19.8-117.4c-2.9-16.4-8.1-32.1-11.9-47.2c-1.6-6.4-3.2-12.6-4.7-18.7c-0.1-0.3-0.2-0.7-0.3-1v0
			c-1.2-4.6-2.3-9-3.4-13.3c-0.4-1.6-0.8-3.3-1.2-4.9l-0.1,0c-2.1-8.3-4.1-15.9-5.9-22.9c-2.4-9.5-4.9-19-7.5-28.4v0
			c-0.4-1.4-0.8-2.9-1.2-4.3v0c-1.2-4-1.8-6.2-2-6.4l7.4,0.7l30.5,2.9l63.5,5.9h3.4l5-0.1h0.9l67-0.5l28.1-0.2l10.3-0.1L618.6,748.3
			L618.6,748.3z M618.6,748.3"/>
		<path class="st7" d="M454.5,790"/>
		<path class="st5" d="M452.5,784.8"/>
		<path class="st7" d="M561.8,795"/>
		<path class="st5" d="M563.9,789.8"/>
		<path class="st5" d="M439.1,705l-82.2,29l60.1,94.2l92.5-78.7L439.1,705z M439.1,705"/>
		<path class="st5" d="M579.8,705l79.6,29l-56.7,98.4l-95.9-82.8L579.8,705z M579.8,705"/>
		<path class="st8" d="M339,812.4l13.7,6.2c30.1-66.9,55.7-99.3,86.5-114.6v-16.7C408.3,702.3,373.1,736.6,339,812.4L339,812.4z
			 M578.3,684v16.8c29.7,13.2,52.3,45,83.7,122.8l13.5-5.6C639.7,729.4,613.7,696.5,578.3,684L578.3,684z M578.3,684"/>
		<path class="st9" d="M284.7,916.6c-1.5-0.7-3.1-1.5-4.5-2.3c0.7-2,1.3-4,1.9-6.1c0.5-1.6,1-3,1.5-4.4c0.4-1.4,0.8-2.8,1.2-4
			c0.4-1,0.7-1.9,1-2.9c0.1-0.3,0.2-0.7,0.3-1l0.7,0.2l4.1,1.3c-0.6,1.6-1.1,3.3-1.6,5.1c-0.3,0.9-0.6,1.9-0.9,2.8
			c-0.5,1.6-1,3.2-1.6,4.9C286,912.3,285.4,914.4,284.7,916.6L284.7,916.6z M332.5,915.5c-0.4,0.7-0.8,1.4-1.2,2.2
			c-0.9,1.7-1.8,3.4-2.7,5.1c-0.7,1.4-1.5,2.7-2.2,4.2c-0.3,0.6-0.7,1.2-0.9,1.8c-0.9,1.6-1.7,3.2-2.7,4.8c-1.5-0.6-3.1-1.2-4.7-1.9
			c1.1-2.1,2.3-4.2,3.3-6.1c0.1-0.2,0.2-0.4,0.3-0.6c0.8-1.5,1.6-3.1,2.4-4.5c1.1-2.1,2.2-4.2,3.2-6c0.3-0.5,0.5-0.9,0.7-1.4
			L332.5,915.5z M332.5,915.5"/>
		<path class="st8" d="M331.6,929.2l-13.8-5.8l33.4-79c3.2-7.6-0.4-16.4-8-19.6c-7.6-3.2-16.4,0.4-19.6,8l-33.4,79l-13.8-5.8
			l33.4-79c6.4-15.2,24-22.4,39.3-16c15.2,6.4,22.4,24,16,39.3L331.6,929.2z M331.6,929.2"/>
		<path class="st10" d="M577.1,644.5"/>
		<path class="st1" d="M694.6,435.4l-9.4-164.5c0-28.1-28.8-51.1-56.4-51.1H384.3c-27.6,0-56.4,23-56.4,51.1l-7.4,164.5
			c0,0,30.4-39.9,183.4-39.9S694.6,435.4,694.6,435.4z"/>
		<g>
			<path class="st6" d="M562.8,320.8H452.3c-1.2,0-2.1-0.9-2.1-2.1v-19.2c0-1.2,0.9-2.1,2.1-2.1h110.6c1.2,0,2.1,0.9,2.1,2.1v19.2
				C565,319.9,564,320.8,562.8,320.8z"/>
			<path class="st6" d="M495.8,364.4V253.8c0-1.2,0.9-2.1,2.1-2.1h19.2c1.2,0,2.1,0.9,2.1,2.1v110.6c0,1.2-0.9,2.1-2.1,2.1H498
				C496.8,366.5,495.8,365.5,495.8,364.4z"/>
		</g>
	</g>
</g>
</svg>
