<?xml version="1.0" standalone="no"?><!DOCTYPE svg PUBLIC "-//W3C//DTD SVG 1.1//EN" "http://www.w3.org/Graphics/SVG/1.1/DTD/svg11.dtd"><svg t="1524722551697" class="icon" style="" viewBox="0 0 1024 1024" version="1.1" xmlns="http://www.w3.org/2000/svg" p-id="2228" xmlns:xlink="http://www.w3.org/1999/xlink" width="64" height="64"><defs><style type="text/css"></style></defs><path d="M870.108 408.615 870.108 307.646 769.139 307.646l0 100.969L870.108 408.615zM870.108 562.453 870.108 461.484 769.139 461.484l0 100.969L870.108 562.453zM716.27 408.615 716.27 307.646 615.301 307.646l0 100.969L716.27 408.615zM716.27 562.453 716.27 461.484 615.301 461.484l0 100.969L716.27 562.453zM716.27 769.212 716.27 665.832 307.625 665.832l0 103.379L716.27 769.211zM254.756 408.615 254.756 307.646 153.787 307.646l0 100.969L254.756 408.615zM254.756 562.453 254.756 461.484 153.787 461.484l0 100.969L254.756 562.453zM307.676 461.535l0 100.969 100.969 0L408.645 461.535 307.676 461.535zM307.676 307.697l0 100.969 100.969 0L408.645 307.697 307.676 307.697zM461.514 461.535l0 100.969 100.969 0L562.483 461.535 461.514 461.535zM461.514 307.697l0 100.969 100.969 0L562.483 307.697 461.514 307.697zM923.028 153.859c27.246 0 50.886 10.017 70.919 30.05s30.05 43.673 30.05 70.919l0 514.383c0 27.246-10.017 50.886-30.05 70.919s-43.673 30.05-70.919 30.05L100.969 870.18c-27.246 0-50.886-10.017-70.919-30.05S0 796.458 0 769.212L0 254.828c0-27.246 10.017-50.886 30.05-70.919s43.673-30.05 70.919-30.05L923.028 153.859z" p-id="2229"></path></svg>